<svg id="svg" version="1.1" xmlns="http://www.w3.org/2000/svg" xmlns:xlink="http://www.w3.org/1999/xlink" width="400" height="398.5263157894737" viewBox="0, 0, 400,398.5263157894737"><g id="svgg"><path id="path0" d="M161.263 129.912 C 149.282 130.558,136.005 135.447,129.457 141.624 C 122.517 148.171,123.282 157.304,130.905 158.921 C 136.448 160.097,141.717 157.172,147.161 149.895 C 151.105 144.623,152.929 143.166,155.799 142.994 C 160.895 142.688,163.384 147.432,163.363 157.413 C 163.352 162.875,163.078 163.095,155.895 163.383 C 143.520 163.881,136.710 165.713,129.798 170.404 C 119.648 177.293,117.020 189.016,123.415 198.876 C 127.735 205.535,134.330 208.520,144.737 208.524 C 152.275 208.527,156.398 207.352,161.854 203.642 C 166.526 200.466,167.289 200.457,170.050 203.547 C 173.006 206.856,177.070 208.627,181.714 208.630 C 183.727 208.632,183.745 208.627,183.882 208.082 C 184.579 205.303,189.370 203.800,192.687 205.319 L 193.861 205.856 195.744 204.639 C 198.098 203.116,198.072 203.170,196.884 202.282 C 183.116 191.990,182.408 173.439,195.348 162.038 L 196.485 161.036 196.360 156.676 C 196.155 149.566,195.208 145.516,192.949 142.098 C 188.624 135.555,178.637 130.541,168.842 129.995 C 167.742 129.934,166.274 129.853,165.579 129.816 C 164.884 129.778,162.942 129.822,161.263 129.912 M237.340 156.653 C 236.862 156.740,235.441 157.165,234.182 157.596 C 231.010 158.684,229.855 158.723,225.197 157.902 C 216.075 156.292,211.491 156.239,206.054 157.679 C 193.977 160.877,186.032 172.147,187.342 184.224 C 188.441 194.358,194.643 201.200,209.821 209.021 C 214.958 211.668,216.497 213.252,216.517 215.911 C 216.550 220.416,210.687 222.155,205.987 219.035 C 205.309 218.585,203.188 216.605,201.273 214.635 C 194.101 207.257,193.247 206.506,191.417 205.975 C 183.760 203.748,181.816 212.998,187.474 224.737 C 191.551 233.196,193.863 234.562,202.842 233.815 C 204.679 233.662,205.939 233.753,212.737 234.528 C 220.116 235.368,220.748 235.409,224.737 235.298 C 230.308 235.144,230.105 235.205,230.105 233.682 C 230.105 223.537,234.442 213.528,241.918 206.415 C 244.358 204.093,248.452 200.867,249.328 200.575 C 249.688 200.455,247.997 198.288,246.116 196.458 C 241.998 192.451,236.580 188.956,228.000 184.772 C 219.794 180.770,217.679 177.747,220.500 174.048 C 223.583 170.007,226.800 170.997,235.050 178.526 C 239.809 182.870,241.450 183.694,245.029 183.537 C 253.060 183.184,254.356 174.751,247.951 164.526 C 244.208 158.551,240.801 156.023,237.340 156.653 M162.037 175.064 C 163.273 175.962,163.655 177.213,163.753 180.689 C 163.970 188.313,162.021 192.000,157.775 192.000 C 149.647 192.000,148.924 178.100,156.888 174.965 C 158.402 174.369,161.155 174.422,162.037 175.064 M270.737 194.666 C 246.282 197.060,229.707 214.971,231.359 237.216 C 233.082 260.434,254.196 276.159,279.348 272.958 C 297.013 270.709,310.328 258.648,305.672 249.112 C 303.613 244.896,300.886 244.134,295.740 246.339 C 288.430 249.471,281.434 249.692,275.981 246.963 C 264.907 241.420,260.318 224.682,267.721 216.834 C 269.781 214.651,271.221 214.000,273.995 214.000 C 278.652 214.000,280.470 215.750,282.744 222.421 C 285.404 230.224,288.554 232.682,295.474 232.354 C 306.198 231.845,312.476 221.638,308.447 211.262 C 304.328 200.654,287.085 193.065,270.737 194.666 M322.620 220.650 C 322.403 221.001,322.891 221.404,323.182 221.113 C 323.425 220.870,323.273 220.421,322.947 220.421 C 322.845 220.421,322.698 220.524,322.620 220.650 M320.936 230.755 C 320.719 231.106,321.207 231.509,321.497 231.218 C 321.740 230.975,321.588 230.526,321.263 230.526 C 321.161 230.526,321.014 230.629,320.936 230.755 M319.252 239.176 C 319.035 239.527,319.523 239.930,319.813 239.639 C 320.056 239.396,319.904 238.947,319.579 238.947 C 319.477 238.947,319.330 239.050,319.252 239.176 M317.568 244.229 C 317.351 244.580,317.839 244.982,318.129 244.692 C 318.372 244.449,318.220 244.000,317.895 244.000 C 317.793 244.000,317.645 244.103,317.568 244.229 M315.883 250.966 C 315.666 251.317,316.154 251.719,316.445 251.429 C 316.688 251.186,316.536 250.737,316.211 250.737 C 316.108 250.737,315.961 250.840,315.883 250.966 M314.199 256.018 C 313.982 256.369,314.470 256.772,314.761 256.482 C 315.004 256.239,314.851 255.789,314.526 255.789 C 314.424 255.789,314.277 255.892,314.199 256.018 M312.515 259.387 C 312.298 259.738,312.786 260.140,313.076 259.850 C 313.319 259.607,313.167 259.158,312.842 259.158 C 312.740 259.158,312.593 259.261,312.515 259.387 M310.831 264.439 C 310.614 264.790,311.102 265.193,311.392 264.903 C 311.635 264.660,311.483 264.211,311.158 264.211 C 311.056 264.211,310.909 264.314,310.831 264.439 M309.147 267.808 C 308.930 268.159,309.418 268.561,309.708 268.271 C 309.951 268.028,309.799 267.579,309.474 267.579 C 309.372 267.579,309.224 267.682,309.147 267.808 M307.462 271.176 C 307.245 271.527,307.733 271.930,308.024 271.639 C 308.267 271.396,308.115 270.947,307.789 270.947 C 307.687 270.947,307.540 271.050,307.462 271.176 M305.778 274.545 C 305.561 274.896,306.049 275.298,306.340 275.008 C 306.582 274.765,306.430 274.316,306.105 274.316 C 306.003 274.316,305.856 274.419,305.778 274.545 M304.094 277.913 C 303.877 278.264,304.365 278.667,304.655 278.376 C 304.898 278.133,304.746 277.684,304.421 277.684 C 304.319 277.684,304.172 277.787,304.094 277.913 M302.410 279.597 C 302.193 279.948,302.681 280.351,302.971 280.060 C 303.214 279.818,303.062 279.368,302.737 279.368 C 302.635 279.368,302.488 279.471,302.410 279.597 M300.726 282.966 C 300.509 283.317,300.996 283.719,301.287 283.429 C 301.530 283.186,301.378 282.737,301.053 282.737 C 300.951 282.737,300.803 282.840,300.726 282.966 M299.041 286.334 C 298.824 286.685,299.312 287.088,299.603 286.797 C 299.846 286.554,299.694 286.105,299.368 286.105 C 299.266 286.105,299.119 286.208,299.041 286.334 M297.357 288.018 C 297.140 288.369,297.628 288.772,297.918 288.482 C 298.161 288.239,298.009 287.789,297.684 287.789 C 297.582 287.789,297.435 287.892,297.357 288.018 M293.989 293.071 C 293.772 293.422,294.260 293.825,294.550 293.534 C 294.793 293.291,294.641 292.842,294.316 292.842 C 294.214 292.842,294.066 292.945,293.989 293.071 M292.304 294.755 C 292.088 295.106,292.575 295.509,292.866 295.218 C 293.109 294.975,292.957 294.526,292.632 294.526 C 292.529 294.526,292.382 294.629,292.304 294.755 M290.620 296.439 C 290.403 296.790,290.891 297.193,291.182 296.903 C 291.425 296.660,291.273 296.211,290.947 296.211 C 290.845 296.211,290.698 296.314,290.620 296.439 M288.936 299.808 C 288.719 300.159,289.207 300.561,289.497 300.271 C 289.740 300.028,289.588 299.579,289.263 299.579 C 289.161 299.579,289.014 299.682,288.936 299.808 M287.252 301.492 C 287.035 301.843,287.523 302.246,287.813 301.955 C 288.056 301.712,287.904 301.263,287.579 301.263 C 287.477 301.263,287.330 301.366,287.252 301.492 M285.568 303.176 C 285.351 303.527,285.839 303.930,286.129 303.639 C 286.372 303.396,286.220 302.947,285.895 302.947 C 285.793 302.947,285.645 303.050,285.568 303.176 M283.883 304.860 C 283.666 305.211,284.154 305.614,284.445 305.324 C 284.688 305.081,284.536 304.632,284.211 304.632 C 284.108 304.632,283.961 304.735,283.883 304.860 M282.199 306.545 C 281.982 306.896,282.470 307.298,282.761 307.008 C 283.004 306.765,282.851 306.316,282.526 306.316 C 282.424 306.316,282.277 306.419,282.199 306.545 M280.515 308.229 C 280.298 308.580,280.786 308.982,281.076 308.692 C 281.319 308.449,281.167 308.000,280.842 308.000 C 280.740 308.000,280.593 308.103,280.515 308.229 M278.831 309.913 C 278.614 310.264,279.102 310.667,279.392 310.376 C 279.635 310.133,279.483 309.684,279.158 309.684 C 279.056 309.684,278.909 309.787,278.831 309.913 M277.147 311.597 C 276.930 311.948,277.418 312.351,277.708 312.060 C 277.951 311.818,277.799 311.368,277.474 311.368 C 277.372 311.368,277.224 311.471,277.147 311.597 M275.462 313.282 C 275.245 313.633,275.733 314.035,276.024 313.745 C 276.267 313.502,276.115 313.053,275.789 313.053 C 275.687 313.053,275.540 313.156,275.462 313.282 M270.410 316.650 C 270.193 317.001,270.681 317.404,270.971 317.113 C 271.214 316.870,271.062 316.421,270.737 316.421 C 270.635 316.421,270.488 316.524,270.410 316.650 M268.726 318.334 C 268.509 318.685,268.996 319.088,269.287 318.797 C 269.530 318.554,269.378 318.105,269.053 318.105 C 268.951 318.105,268.803 318.208,268.726 318.334 M267.041 320.018 C 266.824 320.369,267.312 320.772,267.603 320.482 C 267.846 320.239,267.694 319.789,267.368 319.789 C 267.266 319.789,267.119 319.892,267.041 320.018 M263.673 321.703 C 263.456 322.054,263.944 322.456,264.234 322.166 C 264.477 321.923,264.325 321.474,264.000 321.474 C 263.898 321.474,263.751 321.577,263.673 321.703 M261.989 323.387 C 261.772 323.738,262.260 324.140,262.550 323.850 C 262.793 323.607,262.641 323.158,262.316 323.158 C 262.214 323.158,262.066 323.261,261.989 323.387 M258.620 325.071 C 258.403 325.422,258.891 325.825,259.182 325.534 C 259.425 325.291,259.273 324.842,258.947 324.842 C 258.845 324.842,258.698 324.945,258.620 325.071 M255.252 326.755 C 255.035 327.106,255.523 327.509,255.813 327.218 C 256.056 326.975,255.904 326.526,255.579 326.526 C 255.477 326.526,255.330 326.629,255.252 326.755 M251.883 328.439 C 251.666 328.790,252.154 329.193,252.445 328.903 C 252.688 328.660,252.536 328.211,252.211 328.211 C 252.108 328.211,251.961 328.314,251.883 328.439 M248.515 330.124 C 248.298 330.475,248.786 330.877,249.076 330.587 C 249.319 330.344,249.167 329.895,248.842 329.895 C 248.740 329.895,248.593 329.998,248.515 330.124 M245.147 331.808 C 244.930 332.159,245.418 332.561,245.708 332.271 C 245.951 332.028,245.799 331.579,245.474 331.579 C 245.372 331.579,245.224 331.682,245.147 331.808 M241.778 333.492 C 241.561 333.843,242.049 334.246,242.340 333.955 C 242.582 333.712,242.430 333.263,242.105 333.263 C 242.003 333.263,241.856 333.366,241.778 333.492 M236.726 335.176 C 236.509 335.527,236.996 335.930,237.287 335.639 C 237.530 335.396,237.378 334.947,237.053 334.947 C 236.951 334.947,236.803 335.050,236.726 335.176 M229.989 336.860 C 229.772 337.211,230.260 337.614,230.550 337.324 C 230.793 337.081,230.641 336.632,230.316 336.632 C 230.214 336.632,230.066 336.735,229.989 336.860 M223.252 338.545 C 223.035 338.896,223.523 339.298,223.813 339.008 C 224.056 338.765,223.904 338.316,223.579 338.316 C 223.477 338.316,223.330 338.419,223.252 338.545 " stroke="none" fill="#f3f31b" fill-rule="evenodd"></path><path id="path1" d="M189.053 6.737 L 189.053 13.474 192.947 13.474 L 196.842 13.474 196.842 60.421 L 196.842 107.368 157.789 107.368 L 118.737 107.368 118.737 110.211 L 118.737 113.053 141.368 113.053 L 164.000 113.053 164.000 120.895 L 164.001 128.737 166.474 128.798 C 167.834 128.832,169.208 128.910,169.526 128.973 L 170.105 129.086 170.105 121.069 L 170.105 113.053 183.474 113.053 L 196.842 113.053 196.855 131.526 C 196.862 141.687,196.953 150.474,197.058 151.053 C 197.162 151.632,197.313 153.968,197.393 156.245 L 197.539 160.385 198.310 159.899 C 205.316 155.476,212.684 154.636,225.158 156.837 C 230.014 157.694,230.522 157.675,234.153 156.507 C 239.148 154.899,241.391 155.334,244.518 158.516 L 245.563 159.579 270.150 159.579 L 294.737 159.579 294.737 156.526 L 294.737 153.474 277.684 153.474 L 260.632 153.474 260.632 133.263 L 260.632 113.053 276.211 113.053 L 291.789 113.053 291.789 110.211 L 291.789 107.368 247.579 107.368 L 203.368 107.368 203.368 60.421 L 203.368 13.474 207.263 13.474 L 211.158 13.474 211.158 6.737 L 211.158 0.000 200.105 0.000 L 189.053 0.000 189.053 6.737 M254.316 133.263 L 254.316 153.474 228.842 153.474 L 203.368 153.474 203.368 133.263 L 203.368 113.053 228.842 113.053 L 254.316 113.053 254.316 133.263 M112.211 156.526 L 112.211 159.579 120.684 159.569 L 129.158 159.559 128.129 159.024 C 126.241 158.042,124.711 156.154,123.927 153.842 C 123.813 153.503,123.339 153.474,118.007 153.474 L 112.211 153.474 112.211 156.526 M144.896 154.303 C 143.794 155.631,140.869 157.856,139.053 158.748 L 137.368 159.575 149.842 159.577 L 162.316 159.579 162.313 157.000 C 162.311 155.582,162.253 154.208,162.183 153.947 L 162.056 153.474 153.818 153.477 L 145.579 153.481 144.896 154.303 M0.000 199.263 L 0.000 210.316 6.737 210.316 L 13.474 210.316 13.474 206.526 L 13.474 202.737 69.264 202.737 L 125.054 202.737 123.693 201.017 C 122.945 200.071,121.927 198.467,121.430 197.453 L 120.526 195.609 67.000 195.594 L 13.474 195.579 13.474 191.895 L 13.474 188.211 6.737 188.211 L 0.000 188.211 0.000 199.263 M386.526 191.895 L 386.526 195.579 338.368 195.591 L 290.211 195.603 291.848 196.219 C 295.481 197.585,299.366 199.681,301.977 201.682 L 303.353 202.737 344.940 202.737 L 386.526 202.737 386.526 206.526 L 386.526 210.316 393.263 210.316 L 400.000 210.316 400.000 199.263 L 400.000 188.211 393.263 188.211 L 386.526 188.211 386.526 191.895 M248.192 197.181 C 249.015 198.063,249.835 199.034,250.015 199.339 L 250.341 199.895 253.329 198.417 C 254.972 197.605,257.168 196.640,258.211 196.273 L 260.105 195.606 253.400 195.593 L 246.695 195.579 248.192 197.181 M165.033 202.806 L 164.105 203.297 164.052 226.175 L 163.998 249.053 143.052 249.053 L 122.105 249.053 122.105 252.105 L 122.105 255.158 143.053 255.158 L 164.000 255.158 164.000 258.105 L 164.000 261.053 167.053 261.053 L 170.105 261.053 170.105 258.105 L 170.105 255.158 183.474 255.158 L 196.842 255.158 196.842 320.000 L 196.842 384.842 192.947 384.842 L 189.053 384.842 189.053 391.546 L 189.053 398.249 194.579 398.379 C 197.618 398.450,202.592 398.450,205.632 398.378 L 211.158 398.249 211.158 391.545 L 211.158 384.842 207.263 384.842 L 203.368 384.842 203.368 320.000 L 203.368 255.158 204.211 255.158 L 205.053 255.158 205.053 252.105 L 205.053 249.053 204.211 249.053 L 203.368 249.053 203.368 241.872 L 203.368 234.691 202.579 234.812 C 202.145 234.879,200.676 234.998,199.316 235.077 L 196.842 235.220 196.842 242.136 L 196.842 249.053 183.474 249.053 L 170.105 249.053 170.105 227.099 L 170.105 205.146 168.758 203.731 C 167.207 202.101,166.635 201.959,165.033 202.806 M197.849 204.475 L 196.856 205.158 196.859 206.947 L 196.862 208.737 200.115 212.077 L 203.368 215.418 203.368 210.972 C 203.368 208.527,203.289 206.526,203.192 206.526 C 203.094 206.526,202.081 205.911,200.939 205.158 C 199.798 204.405,198.859 203.790,198.853 203.791 C 198.847 203.791,198.395 204.099,197.849 204.475 " stroke="none" fill="#292919" fill-rule="evenodd"></path><path id="path2" d="M203.368 50.076 L 203.368 57.053 208.000 57.053 C 210.947 57.053,212.632 57.129,212.632 57.263 C 212.632 57.391,213.544 57.474,214.947 57.474 C 216.351 57.474,217.263 57.557,217.263 57.684 C 217.263 57.807,217.965 57.895,218.947 57.895 C 219.930 57.895,220.632 57.982,220.632 58.105 C 220.632 58.222,221.193 58.316,221.895 58.316 C 222.596 58.316,223.158 58.409,223.158 58.526 C 223.158 58.642,223.537 58.737,224.000 58.737 C 224.463 58.737,224.842 58.832,224.842 58.947 C 224.842 59.063,225.316 59.158,225.895 59.158 C 226.474 59.158,226.947 59.253,226.947 59.368 C 226.947 59.485,227.509 59.579,228.211 59.579 C 228.912 59.579,229.474 59.673,229.474 59.789 C 229.474 59.905,229.853 60.000,230.316 60.000 C 230.779 60.000,231.158 60.095,231.158 60.211 C 231.158 60.326,231.442 60.421,231.789 60.421 C 232.137 60.421,232.421 60.516,232.421 60.632 C 232.421 60.747,232.800 60.842,233.263 60.842 C 233.726 60.842,234.105 60.937,234.105 61.053 C 234.105 61.168,234.389 61.263,234.737 61.263 C 235.084 61.263,235.368 61.358,235.368 61.474 C 235.368 61.589,235.653 61.684,236.000 61.684 C 236.347 61.684,236.632 61.779,236.632 61.895 C 236.632 62.011,236.916 62.105,237.263 62.105 C 237.611 62.105,237.895 62.200,237.895 62.316 C 237.895 62.432,238.179 62.526,238.526 62.526 C 238.874 62.526,239.158 62.621,239.158 62.737 C 239.158 62.853,239.442 62.947,239.789 62.947 C 240.137 62.947,240.421 63.042,240.421 63.158 C 240.421 63.274,240.705 63.368,241.053 63.368 C 241.400 63.368,241.684 63.463,241.684 63.579 C 241.684 63.695,241.874 63.789,242.105 63.789 C 242.337 63.789,242.526 63.884,242.526 64.000 C 242.526 64.116,242.811 64.211,243.158 64.211 C 243.505 64.211,243.789 64.305,243.789 64.421 C 243.789 64.537,243.979 64.632,244.211 64.632 C 244.442 64.632,244.632 64.726,244.632 64.842 C 244.632 64.958,244.916 65.053,245.263 65.053 C 245.611 65.053,245.895 65.147,245.895 65.263 C 245.895 65.379,246.084 65.474,246.316 65.474 C 246.547 65.474,246.737 65.568,246.737 65.684 C 246.737 65.800,246.926 65.895,247.158 65.895 C 247.389 65.895,247.579 65.989,247.579 66.105 C 247.579 66.221,247.863 66.316,248.211 66.316 C 248.558 66.316,248.842 66.411,248.842 66.526 C 248.842 66.642,249.032 66.737,249.263 66.737 C 249.495 66.737,249.684 66.832,249.684 66.947 C 249.684 67.063,249.874 67.158,250.105 67.158 C 250.337 67.158,250.526 67.253,250.526 67.368 C 250.526 67.484,250.716 67.579,250.947 67.579 C 251.179 67.579,251.368 67.674,251.368 67.789 C 251.368 67.905,251.558 68.000,251.789 68.000 C 252.021 68.000,252.211 68.095,252.211 68.211 C 252.211 68.326,252.400 68.421,252.632 68.421 C 252.863 68.421,253.053 68.516,253.053 68.632 C 253.053 68.747,253.242 68.842,253.474 68.842 C 253.705 68.842,253.895 68.937,253.895 69.053 C 253.895 69.168,254.084 69.263,254.316 69.263 C 254.547 69.263,254.737 69.358,254.737 69.474 C 254.737 69.589,254.905 69.684,255.111 69.684 C 255.317 69.684,255.623 69.874,255.789 70.105 C 255.956 70.337,256.262 70.526,256.468 70.526 C 256.674 70.526,256.842 70.621,256.842 70.737 C 256.842 70.853,257.032 70.947,257.263 70.947 C 257.495 70.947,257.684 71.042,257.684 71.158 C 257.684 71.274,257.853 71.368,258.059 71.368 C 258.265 71.368,258.570 71.558,258.737 71.789 C 258.904 72.021,259.209 72.211,259.415 72.211 C 259.621 72.211,259.789 72.305,259.789 72.421 C 259.789 72.537,259.958 72.632,260.164 72.632 C 260.370 72.632,260.675 72.821,260.842 73.053 C 261.009 73.284,261.293 73.474,261.474 73.474 C 261.654 73.474,261.938 73.663,262.105 73.895 C 262.272 74.126,262.556 74.316,262.737 74.316 C 262.917 74.316,263.202 74.505,263.368 74.737 C 263.535 74.968,263.820 75.158,264.000 75.158 C 264.180 75.158,264.465 75.347,264.632 75.579 C 264.798 75.811,265.083 76.000,265.263 76.000 C 265.444 76.000,265.728 76.189,265.895 76.421 C 266.062 76.653,266.346 76.842,266.526 76.842 C 266.707 76.842,266.991 77.032,267.158 77.263 C 267.325 77.495,267.592 77.684,267.751 77.684 C 267.911 77.684,268.307 77.968,268.632 78.316 C 268.956 78.663,269.333 78.947,269.469 78.947 C 269.606 78.947,270.081 79.326,270.526 79.789 C 270.971 80.253,271.445 80.632,271.579 80.632 C 271.713 80.632,272.187 81.011,272.632 81.474 C 273.077 81.937,273.549 82.316,273.681 82.316 C 273.814 82.316,274.383 82.789,274.947 83.368 C 275.511 83.947,276.074 84.421,276.198 84.421 C 276.491 84.421,288.842 96.771,288.842 97.063 C 288.842 97.186,289.411 97.844,290.105 98.526 C 290.800 99.208,291.368 99.874,291.368 100.005 C 291.368 100.136,291.747 100.608,292.211 101.053 C 292.674 101.498,293.053 101.973,293.053 102.110 C 293.053 102.246,293.337 102.623,293.684 102.947 C 294.032 103.272,294.316 103.651,294.316 103.789 C 294.316 103.928,294.600 104.307,294.947 104.632 C 295.295 104.956,295.579 105.335,295.579 105.474 C 295.579 105.612,295.863 105.991,296.211 106.316 C 296.558 106.640,296.842 107.019,296.842 107.158 C 296.842 107.297,297.126 107.676,297.474 108.000 C 297.821 108.324,298.105 108.721,298.105 108.880 C 298.105 109.040,298.295 109.307,298.526 109.474 C 298.758 109.641,298.947 109.925,298.947 110.105 C 298.947 110.286,299.137 110.570,299.368 110.737 C 299.600 110.904,299.789 111.188,299.789 111.368 C 299.789 111.549,299.979 111.833,300.211 112.000 C 300.442 112.167,300.632 112.451,300.632 112.632 C 300.632 112.812,300.821 113.096,301.053 113.263 C 301.284 113.430,301.474 113.735,301.474 113.941 C 301.474 114.147,301.568 114.316,301.684 114.316 C 301.800 114.316,301.895 114.484,301.895 114.690 C 301.895 114.896,302.084 115.202,302.316 115.368 C 302.547 115.535,302.737 115.820,302.737 116.000 C 302.737 116.180,302.926 116.465,303.158 116.632 C 303.389 116.798,303.579 117.104,303.579 117.310 C 303.579 117.516,303.674 117.684,303.789 117.684 C 303.905 117.684,304.000 117.874,304.000 118.105 C 304.000 118.337,304.095 118.526,304.211 118.526 C 304.326 118.526,304.421 118.695,304.421 118.901 C 304.421 119.107,304.611 119.412,304.842 119.579 C 305.074 119.746,305.263 120.051,305.263 120.257 C 305.263 120.463,305.358 120.632,305.474 120.632 C 305.589 120.632,305.684 120.821,305.684 121.053 C 305.684 121.284,305.779 121.474,305.895 121.474 C 306.011 121.474,306.105 121.642,306.105 121.848 C 306.105 122.054,306.295 122.359,306.526 122.526 C 306.758 122.693,306.947 122.998,306.947 123.204 C 306.947 123.410,307.042 123.579,307.158 123.579 C 307.274 123.579,307.368 123.768,307.368 124.000 C 307.368 124.232,307.463 124.421,307.579 124.421 C 307.695 124.421,307.789 124.611,307.789 124.842 C 307.789 125.074,307.884 125.263,308.000 125.263 C 308.116 125.263,308.211 125.453,308.211 125.684 C 308.211 125.916,308.305 126.105,308.421 126.105 C 308.537 126.105,308.632 126.295,308.632 126.526 C 308.632 126.758,308.726 126.947,308.842 126.947 C 308.958 126.947,309.053 127.137,309.053 127.368 C 309.053 127.600,309.147 127.789,309.263 127.789 C 309.379 127.789,309.474 127.979,309.474 128.211 C 309.474 128.442,309.568 128.632,309.684 128.632 C 309.800 128.632,309.895 128.821,309.895 129.053 C 309.895 129.284,309.989 129.474,310.105 129.474 C 310.221 129.474,310.316 129.663,310.316 129.895 C 310.316 130.126,310.411 130.316,310.526 130.316 C 310.642 130.316,310.737 130.505,310.737 130.737 C 310.737 130.968,310.832 131.158,310.947 131.158 C 311.063 131.158,311.158 131.442,311.158 131.789 C 311.158 132.137,311.253 132.421,311.368 132.421 C 311.484 132.421,311.579 132.611,311.579 132.842 C 311.579 133.074,311.674 133.263,311.789 133.263 C 311.905 133.263,312.000 133.453,312.000 133.684 C 312.000 133.916,312.095 134.105,312.211 134.105 C 312.326 134.105,312.421 134.389,312.421 134.737 C 312.421 135.084,312.516 135.368,312.632 135.368 C 312.747 135.368,312.842 135.558,312.842 135.789 C 312.842 136.021,312.937 136.211,313.053 136.211 C 313.168 136.211,313.263 136.400,313.263 136.632 C 313.263 136.863,313.358 137.053,313.474 137.053 C 313.589 137.053,313.684 137.337,313.684 137.684 C 313.684 138.032,313.779 138.316,313.895 138.316 C 314.011 138.316,314.105 138.505,314.105 138.737 C 314.105 138.968,314.200 139.158,314.316 139.158 C 314.432 139.158,314.526 139.442,314.526 139.789 C 314.526 140.137,314.621 140.421,314.737 140.421 C 314.853 140.421,314.947 140.611,314.947 140.842 C 314.947 141.074,315.042 141.263,315.158 141.263 C 315.274 141.263,315.368 141.547,315.368 141.895 C 315.368 142.242,315.463 142.526,315.579 142.526 C 315.695 142.526,315.789 142.811,315.789 143.158 C 315.789 143.505,315.884 143.789,316.000 143.789 C 316.116 143.789,316.211 144.074,316.211 144.421 C 316.211 144.768,316.305 145.053,316.421 145.053 C 316.537 145.053,316.632 145.242,316.632 145.474 C 316.632 145.705,316.726 145.895,316.842 145.895 C 316.958 145.895,317.053 146.179,317.053 146.526 C 317.053 146.874,317.147 147.158,317.263 147.158 C 317.379 147.158,317.474 147.442,317.474 147.789 C 317.474 148.137,317.568 148.421,317.684 148.421 C 317.800 148.421,317.895 148.800,317.895 149.263 C 317.895 149.726,317.989 150.105,318.105 150.105 C 318.221 150.105,318.316 150.389,318.316 150.737 C 318.316 151.084,318.411 151.368,318.526 151.368 C 318.642 151.368,318.737 151.653,318.737 152.000 C 318.737 152.347,318.832 152.632,318.947 152.632 C 319.063 152.632,319.158 152.910,319.158 153.251 C 319.158 153.591,319.253 153.928,319.368 154.000 C 319.484 154.072,319.579 154.456,319.579 154.855 C 319.579 155.253,319.674 155.579,319.789 155.579 C 319.905 155.579,320.000 155.958,320.000 156.421 C 320.000 156.884,320.095 157.263,320.211 157.263 C 320.326 157.263,320.421 157.642,320.421 158.105 C 320.421 158.568,320.516 158.947,320.632 158.947 C 320.747 158.947,320.842 159.326,320.842 159.789 C 320.842 160.253,320.937 160.632,321.053 160.632 C 321.168 160.632,321.263 161.105,321.263 161.684 C 321.263 162.263,321.348 162.737,321.451 162.737 C 321.554 162.737,321.692 163.045,321.758 163.421 C 321.916 164.325,322.276 166.166,322.550 167.474 C 322.672 168.053,322.819 169.118,322.877 169.842 C 322.936 170.566,323.058 171.158,323.149 171.158 C 323.240 171.158,323.370 171.608,323.438 172.158 C 323.506 172.708,323.665 173.868,323.792 174.737 C 324.010 176.234,324.169 177.557,324.623 181.684 C 325.001 185.121,325.468 191.700,325.471 193.632 L 325.474 195.579 336.105 195.579 L 346.737 195.579 346.737 194.223 C 346.737 190.934,345.729 181.287,344.734 175.052 C 332.794 100.223,275.646 44.545,209.421 43.220 L 203.368 43.099 203.368 50.076 M193.053 43.701 C 125.121 51.066,71.808 111.741,65.374 189.013 C 65.197 191.133,65.053 193.478,65.053 194.223 L 65.053 195.579 76.105 195.579 L 87.158 195.579 87.158 193.263 C 87.158 191.860,87.241 190.947,87.368 190.947 C 87.499 190.947,87.579 189.825,87.579 188.000 C 87.579 186.175,87.659 185.053,87.789 185.053 C 87.916 185.053,88.000 184.211,88.000 182.947 C 88.000 181.684,88.084 180.842,88.211 180.842 C 88.333 180.842,88.421 180.140,88.421 179.158 C 88.421 178.175,88.509 177.474,88.632 177.474 C 88.749 177.474,88.842 176.912,88.842 176.211 C 88.842 175.509,88.936 174.947,89.053 174.947 C 89.175 174.947,89.263 174.246,89.263 173.263 C 89.263 172.281,89.351 171.579,89.474 171.579 C 89.589 171.579,89.684 171.200,89.684 170.737 C 89.684 170.274,89.779 169.895,89.895 169.895 C 90.015 169.895,90.105 169.263,90.105 168.421 C 90.105 167.579,90.195 166.947,90.316 166.947 C 90.432 166.947,90.526 166.663,90.526 166.316 C 90.526 165.968,90.621 165.684,90.737 165.684 C 90.854 165.684,90.947 165.123,90.947 164.421 C 90.947 163.719,91.041 163.158,91.158 163.158 C 91.274 163.158,91.368 162.779,91.368 162.316 C 91.368 161.853,91.463 161.474,91.579 161.474 C 91.695 161.474,91.789 161.095,91.789 160.632 C 91.789 160.168,91.884 159.789,92.000 159.789 C 92.116 159.789,92.211 159.316,92.211 158.737 C 92.211 158.158,92.305 157.684,92.421 157.684 C 92.537 157.684,92.632 157.400,92.632 157.053 C 92.632 156.705,92.726 156.421,92.842 156.421 C 92.958 156.421,93.053 156.042,93.053 155.579 C 93.053 155.116,93.147 154.737,93.263 154.737 C 93.379 154.737,93.474 154.453,93.474 154.105 C 93.474 153.758,93.568 153.474,93.684 153.474 C 93.800 153.474,93.895 153.095,93.895 152.632 C 93.895 152.168,93.989 151.789,94.105 151.789 C 94.221 151.789,94.316 151.505,94.316 151.158 C 94.316 150.811,94.411 150.526,94.526 150.526 C 94.642 150.526,94.737 150.242,94.737 149.895 C 94.737 149.547,94.832 149.263,94.947 149.263 C 95.063 149.263,95.158 148.979,95.158 148.632 C 95.158 148.284,95.253 148.000,95.368 148.000 C 95.484 148.000,95.579 147.716,95.579 147.368 C 95.579 147.021,95.674 146.737,95.789 146.737 C 95.905 146.737,96.000 146.453,96.000 146.105 C 96.000 145.758,96.095 145.474,96.211 145.474 C 96.326 145.474,96.421 145.189,96.421 144.842 C 96.421 144.495,96.516 144.211,96.632 144.211 C 96.747 144.211,96.842 143.926,96.842 143.579 C 96.842 143.232,96.937 142.947,97.053 142.947 C 97.168 142.947,97.263 142.758,97.263 142.526 C 97.263 142.295,97.358 142.105,97.474 142.105 C 97.589 142.105,97.684 141.821,97.684 141.474 C 97.684 141.126,97.779 140.842,97.895 140.842 C 98.011 140.842,98.105 140.558,98.105 140.211 C 98.105 139.863,98.200 139.579,98.316 139.579 C 98.432 139.579,98.526 139.389,98.526 139.158 C 98.526 138.926,98.621 138.737,98.737 138.737 C 98.853 138.737,98.947 138.453,98.947 138.105 C 98.947 137.758,99.042 137.474,99.158 137.474 C 99.274 137.474,99.368 137.284,99.368 137.053 C 99.368 136.821,99.463 136.632,99.579 136.632 C 99.695 136.632,99.789 136.442,99.789 136.211 C 99.789 135.979,99.884 135.789,100.000 135.789 C 100.116 135.789,100.211 135.505,100.211 135.158 C 100.211 134.811,100.305 134.526,100.421 134.526 C 100.537 134.526,100.632 134.337,100.632 134.105 C 100.632 133.874,100.726 133.684,100.842 133.684 C 100.958 133.684,101.053 133.495,101.053 133.263 C 101.053 133.032,101.147 132.842,101.263 132.842 C 101.379 132.842,101.474 132.653,101.474 132.421 C 101.474 132.189,101.568 132.000,101.684 132.000 C 101.800 132.000,101.895 131.716,101.895 131.368 C 101.895 131.021,101.989 130.737,102.105 130.737 C 102.221 130.737,102.316 130.547,102.316 130.316 C 102.316 130.084,102.411 129.895,102.526 129.895 C 102.642 129.895,102.737 129.705,102.737 129.474 C 102.737 129.242,102.832 129.053,102.947 129.053 C 103.063 129.053,103.158 128.863,103.158 128.632 C 103.158 128.400,103.253 128.211,103.368 128.211 C 103.484 128.211,103.579 128.021,103.579 127.789 C 103.579 127.558,103.674 127.368,103.789 127.368 C 103.905 127.368,104.000 127.179,104.000 126.947 C 104.000 126.716,104.095 126.526,104.211 126.526 C 104.326 126.526,104.421 126.337,104.421 126.105 C 104.421 125.874,104.516 125.684,104.632 125.684 C 104.747 125.684,104.842 125.495,104.842 125.263 C 104.842 125.032,104.937 124.842,105.053 124.842 C 105.168 124.842,105.263 124.653,105.263 124.421 C 105.263 124.189,105.358 124.000,105.474 124.000 C 105.589 124.000,105.684 123.831,105.684 123.625 C 105.684 123.419,105.874 123.114,106.105 122.947 C 106.337 122.780,106.526 122.475,106.526 122.269 C 106.526 122.063,106.621 121.895,106.737 121.895 C 106.853 121.895,106.947 121.705,106.947 121.474 C 106.947 121.242,107.042 121.053,107.158 121.053 C 107.274 121.053,107.368 120.863,107.368 120.632 C 107.368 120.400,107.463 120.211,107.579 120.211 C 107.695 120.211,107.789 120.042,107.789 119.836 C 107.789 119.630,107.979 119.325,108.211 119.158 C 108.442 118.991,108.632 118.686,108.632 118.480 C 108.632 118.274,108.726 118.105,108.842 118.105 C 108.958 118.105,109.053 117.937,109.053 117.731 C 109.053 117.525,109.242 117.220,109.474 117.053 C 109.705 116.886,109.895 116.581,109.895 116.375 C 109.895 116.169,109.989 116.000,110.105 116.000 C 110.221 116.000,110.316 115.831,110.316 115.625 C 110.316 115.419,110.505 115.114,110.737 114.947 C 110.968 114.780,111.158 114.496,111.158 114.316 C 111.158 114.135,111.347 113.851,111.579 113.684 C 111.811 113.517,112.000 113.233,112.000 113.053 C 112.000 112.872,112.189 112.588,112.421 112.421 C 112.653 112.254,112.842 111.970,112.842 111.789 C 112.842 111.609,113.032 111.325,113.263 111.158 C 113.495 110.991,113.684 110.707,113.684 110.526 C 113.684 110.346,113.874 110.062,114.105 109.895 C 114.337 109.728,114.526 109.444,114.526 109.263 C 114.526 109.083,114.716 108.798,114.947 108.632 C 115.179 108.465,115.368 108.198,115.368 108.038 C 115.368 107.878,115.653 107.482,116.000 107.158 C 116.347 106.833,116.632 106.454,116.632 106.316 C 116.632 106.177,116.916 105.798,117.263 105.474 C 117.611 105.149,117.895 104.770,117.895 104.632 C 117.895 104.493,118.179 104.114,118.526 103.789 C 118.874 103.465,119.158 103.088,119.158 102.952 C 119.158 102.815,119.537 102.340,120.000 101.895 C 120.463 101.450,120.842 100.977,120.842 100.845 C 120.842 100.713,121.316 100.143,121.895 99.579 C 122.474 99.015,122.947 98.448,122.947 98.319 C 122.947 98.190,123.611 97.431,124.421 96.632 C 125.232 95.832,125.895 95.078,125.895 94.956 C 125.895 94.667,134.034 86.526,134.323 86.526 C 134.445 86.526,135.294 85.768,136.211 84.842 C 137.127 83.916,137.983 83.158,138.113 83.158 C 138.243 83.158,138.713 82.779,139.158 82.316 C 139.603 81.853,140.077 81.474,140.211 81.474 C 140.344 81.474,140.818 81.095,141.263 80.632 C 141.708 80.168,142.184 79.789,142.320 79.789 C 142.456 79.789,142.833 79.505,143.158 79.158 C 143.482 78.811,143.861 78.526,144.000 78.526 C 144.139 78.526,144.518 78.242,144.842 77.895 C 145.167 77.547,145.563 77.263,145.722 77.263 C 145.882 77.263,146.149 77.074,146.316 76.842 C 146.483 76.611,146.767 76.421,146.947 76.421 C 147.128 76.421,147.412 76.232,147.579 76.000 C 147.746 75.768,148.030 75.579,148.211 75.579 C 148.391 75.579,148.675 75.389,148.842 75.158 C 149.009 74.926,149.293 74.737,149.474 74.737 C 149.654 74.737,149.938 74.547,150.105 74.316 C 150.272 74.084,150.556 73.895,150.737 73.895 C 150.917 73.895,151.202 73.705,151.368 73.474 C 151.535 73.242,151.840 73.053,152.046 73.053 C 152.252 73.053,152.421 72.958,152.421 72.842 C 152.421 72.726,152.590 72.632,152.796 72.632 C 153.002 72.632,153.307 72.442,153.474 72.211 C 153.641 71.979,153.946 71.789,154.152 71.789 C 154.358 71.789,154.526 71.695,154.526 71.579 C 154.526 71.463,154.695 71.368,154.901 71.368 C 155.107 71.368,155.412 71.179,155.579 70.947 C 155.746 70.716,156.051 70.526,156.257 70.526 C 156.463 70.526,156.632 70.432,156.632 70.316 C 156.632 70.200,156.821 70.105,157.053 70.105 C 157.284 70.105,157.474 70.011,157.474 69.895 C 157.474 69.779,157.663 69.684,157.895 69.684 C 158.126 69.684,158.316 69.589,158.316 69.474 C 158.316 69.358,158.505 69.263,158.737 69.263 C 158.968 69.263,159.158 69.168,159.158 69.053 C 159.158 68.937,159.347 68.842,159.579 68.842 C 159.811 68.842,160.000 68.747,160.000 68.632 C 160.000 68.516,160.189 68.421,160.421 68.421 C 160.653 68.421,160.842 68.326,160.842 68.211 C 160.842 68.095,161.032 68.000,161.263 68.000 C 161.495 68.000,161.684 67.905,161.684 67.789 C 161.684 67.674,161.874 67.579,162.105 67.579 C 162.337 67.579,162.526 67.484,162.526 67.368 C 162.526 67.253,162.716 67.158,162.947 67.158 C 163.179 67.158,163.368 67.063,163.368 66.947 C 163.368 66.832,163.558 66.737,163.789 66.737 C 164.021 66.737,164.211 66.642,164.211 66.526 C 164.211 66.411,164.400 66.316,164.632 66.316 C 164.863 66.316,165.053 66.221,165.053 66.105 C 165.053 65.989,165.242 65.895,165.474 65.895 C 165.705 65.895,165.895 65.800,165.895 65.684 C 165.895 65.568,166.179 65.474,166.526 65.474 C 166.874 65.474,167.158 65.379,167.158 65.263 C 167.158 65.147,167.347 65.053,167.579 65.053 C 167.811 65.053,168.000 64.958,168.000 64.842 C 168.000 64.726,168.284 64.632,168.632 64.632 C 168.979 64.632,169.263 64.537,169.263 64.421 C 169.263 64.305,169.453 64.211,169.684 64.211 C 169.916 64.211,170.105 64.116,170.105 64.000 C 170.105 63.884,170.389 63.789,170.737 63.789 C 171.084 63.789,171.368 63.695,171.368 63.579 C 171.368 63.463,171.558 63.368,171.789 63.368 C 172.021 63.368,172.211 63.274,172.211 63.158 C 172.211 63.042,172.495 62.947,172.842 62.947 C 173.189 62.947,173.474 62.853,173.474 62.737 C 173.474 62.621,173.758 62.526,174.105 62.526 C 174.453 62.526,174.737 62.432,174.737 62.316 C 174.737 62.200,175.021 62.105,175.368 62.105 C 175.716 62.105,176.000 62.011,176.000 61.895 C 176.000 61.779,176.284 61.684,176.632 61.684 C 176.979 61.684,177.263 61.589,177.263 61.474 C 177.263 61.358,177.642 61.263,178.105 61.263 C 178.568 61.263,178.947 61.168,178.947 61.053 C 178.947 60.937,179.232 60.842,179.579 60.842 C 179.926 60.842,180.211 60.747,180.211 60.632 C 180.211 60.516,180.589 60.421,181.053 60.421 C 181.516 60.421,181.895 60.326,181.895 60.211 C 181.895 60.095,182.274 60.000,182.737 60.000 C 183.200 60.000,183.579 59.905,183.579 59.789 C 183.579 59.674,183.958 59.579,184.421 59.579 C 184.884 59.579,185.263 59.484,185.263 59.368 C 185.263 59.253,185.737 59.158,186.316 59.158 C 186.895 59.158,187.368 59.063,187.368 58.947 C 187.368 58.827,188.000 58.737,188.842 58.737 C 189.684 58.737,190.316 58.647,190.316 58.526 C 190.316 58.411,190.789 58.316,191.368 58.316 C 191.947 58.316,192.421 58.221,192.421 58.105 C 192.421 57.985,193.053 57.895,193.895 57.895 C 194.737 57.895,195.368 57.805,195.368 57.684 C 195.368 57.568,195.700 57.474,196.105 57.474 L 196.842 57.474 196.842 50.421 L 196.842 43.368 196.263 43.392 C 195.945 43.405,194.500 43.544,193.053 43.701 M64.906 209.316 C 66.457 291.152,122.638 358.237,195.421 365.161 L 196.842 365.297 196.842 353.099 L 196.842 340.901 195.526 340.759 C 194.803 340.682,193.618 340.561,192.895 340.491 C 192.171 340.421,191.579 340.290,191.579 340.200 C 191.579 340.110,190.987 339.985,190.263 339.922 C 187.998 339.725,186.947 339.543,186.947 339.347 C 186.947 339.243,186.432 339.158,185.802 339.158 C 185.172 339.158,184.598 339.063,184.526 338.947 C 184.455 338.832,184.076 338.737,183.684 338.737 C 183.293 338.737,182.914 338.642,182.842 338.526 C 182.771 338.411,182.339 338.316,181.882 338.316 C 181.426 338.316,181.053 338.221,181.053 338.105 C 181.053 337.989,180.727 337.895,180.328 337.895 C 179.930 337.895,179.545 337.800,179.474 337.684 C 179.402 337.568,179.065 337.474,178.724 337.474 C 178.384 337.474,178.105 337.379,178.105 337.263 C 178.105 337.147,177.821 337.053,177.474 337.053 C 177.126 337.053,176.842 336.958,176.842 336.842 C 176.842 336.726,176.558 336.632,176.211 336.632 C 175.863 336.632,175.579 336.537,175.579 336.421 C 175.579 336.305,175.295 336.211,174.947 336.211 C 174.600 336.211,174.316 336.116,174.316 336.000 C 174.316 335.884,174.032 335.789,173.684 335.789 C 173.337 335.789,173.053 335.695,173.053 335.579 C 173.053 335.463,172.768 335.368,172.421 335.368 C 172.074 335.368,171.789 335.274,171.789 335.158 C 171.789 335.042,171.505 334.947,171.158 334.947 C 170.811 334.947,170.526 334.853,170.526 334.737 C 170.526 334.621,170.337 334.526,170.105 334.526 C 169.874 334.526,169.684 334.432,169.684 334.316 C 169.684 334.200,169.400 334.105,169.053 334.105 C 168.705 334.105,168.421 334.011,168.421 333.895 C 168.421 333.779,168.232 333.684,168.000 333.684 C 167.768 333.684,167.579 333.589,167.579 333.474 C 167.579 333.358,167.389 333.263,167.158 333.263 C 166.926 333.263,166.737 333.168,166.737 333.053 C 166.737 332.937,166.453 332.842,166.105 332.842 C 165.758 332.842,165.474 332.747,165.474 332.632 C 165.474 332.516,165.284 332.421,165.053 332.421 C 164.821 332.421,164.632 332.326,164.632 332.211 C 164.632 332.095,164.442 332.000,164.211 332.000 C 163.979 332.000,163.789 331.905,163.789 331.789 C 163.789 331.674,163.600 331.579,163.368 331.579 C 163.137 331.579,162.947 331.484,162.947 331.368 C 162.947 331.253,162.758 331.158,162.526 331.158 C 162.295 331.158,162.105 331.063,162.105 330.947 C 162.105 330.832,161.916 330.737,161.684 330.737 C 161.453 330.737,161.263 330.642,161.263 330.526 C 161.263 330.411,161.074 330.316,160.842 330.316 C 160.611 330.316,160.421 330.221,160.421 330.105 C 160.421 329.989,160.232 329.895,160.000 329.895 C 159.768 329.895,159.579 329.800,159.579 329.684 C 159.579 329.568,159.389 329.474,159.158 329.474 C 158.926 329.474,158.737 329.379,158.737 329.263 C 158.737 329.147,158.547 329.053,158.316 329.053 C 158.084 329.053,157.895 328.958,157.895 328.842 C 157.895 328.726,157.705 328.632,157.474 328.632 C 157.242 328.632,157.053 328.537,157.053 328.421 C 157.053 328.305,156.863 328.211,156.632 328.211 C 156.400 328.211,156.211 328.116,156.211 328.000 C 156.211 327.884,156.042 327.789,155.836 327.789 C 155.630 327.789,155.325 327.600,155.158 327.368 C 154.991 327.137,154.686 326.947,154.480 326.947 C 154.274 326.947,154.105 326.853,154.105 326.737 C 154.105 326.621,153.937 326.526,153.731 326.526 C 153.525 326.526,153.220 326.337,153.053 326.105 C 152.886 325.874,152.602 325.684,152.421 325.684 C 152.241 325.684,151.956 325.495,151.789 325.263 C 151.623 325.032,151.317 324.842,151.111 324.842 C 150.905 324.842,150.737 324.747,150.737 324.632 C 150.737 324.516,150.568 324.421,150.362 324.421 C 150.156 324.421,149.851 324.232,149.684 324.000 C 149.517 323.768,149.233 323.579,149.053 323.579 C 148.872 323.579,148.588 323.389,148.421 323.158 C 148.254 322.926,147.970 322.737,147.789 322.737 C 147.609 322.737,147.325 322.547,147.158 322.316 C 146.991 322.084,146.724 321.895,146.564 321.895 C 146.405 321.895,146.009 321.611,145.684 321.263 C 145.360 320.916,144.981 320.632,144.842 320.632 C 144.703 320.632,144.324 320.347,144.000 320.000 C 143.676 319.653,143.297 319.368,143.158 319.368 C 143.019 319.368,142.640 319.084,142.316 318.737 C 141.991 318.389,141.614 318.105,141.478 318.105 C 141.342 318.105,140.866 317.726,140.421 317.263 C 139.976 316.800,139.505 316.421,139.373 316.421 C 139.242 316.421,138.577 315.853,137.895 315.158 C 137.213 314.463,136.555 313.895,136.432 313.895 C 136.140 313.895,124.211 301.965,124.211 301.673 C 124.211 301.551,123.642 300.892,122.947 300.211 C 122.253 299.529,121.684 298.863,121.684 298.732 C 121.684 298.601,121.305 298.129,120.842 297.684 C 120.379 297.239,120.000 296.766,120.000 296.632 C 120.000 296.498,119.621 296.024,119.158 295.579 C 118.695 295.134,118.316 294.658,118.316 294.522 C 118.316 294.386,118.032 294.009,117.684 293.684 C 117.337 293.360,117.053 292.981,117.053 292.842 C 117.053 292.703,116.768 292.324,116.421 292.000 C 116.074 291.676,115.789 291.279,115.789 291.120 C 115.789 290.960,115.600 290.693,115.368 290.526 C 115.137 290.359,114.947 290.075,114.947 289.895 C 114.947 289.714,114.758 289.430,114.526 289.263 C 114.295 289.096,114.105 288.812,114.105 288.632 C 114.105 288.451,113.916 288.167,113.684 288.000 C 113.453 287.833,113.263 287.549,113.263 287.368 C 113.263 287.188,113.074 286.904,112.842 286.737 C 112.611 286.570,112.421 286.286,112.421 286.105 C 112.421 285.925,112.232 285.641,112.000 285.474 C 111.768 285.307,111.579 285.023,111.579 284.842 C 111.579 284.662,111.389 284.377,111.158 284.211 C 110.926 284.044,110.737 283.759,110.737 283.579 C 110.737 283.398,110.547 283.114,110.316 282.947 C 110.084 282.780,109.895 282.475,109.895 282.269 C 109.895 282.063,109.800 281.895,109.684 281.895 C 109.568 281.895,109.474 281.726,109.474 281.520 C 109.474 281.314,109.284 281.009,109.053 280.842 C 108.821 280.675,108.632 280.370,108.632 280.164 C 108.632 279.958,108.537 279.789,108.421 279.789 C 108.305 279.789,108.211 279.600,108.211 279.368 C 108.211 279.137,108.116 278.947,108.000 278.947 C 107.884 278.947,107.789 278.779,107.789 278.573 C 107.789 278.367,107.600 278.062,107.368 277.895 C 107.137 277.728,106.947 277.423,106.947 277.217 C 106.947 277.011,106.853 276.842,106.737 276.842 C 106.621 276.842,106.526 276.653,106.526 276.421 C 106.526 276.189,106.432 276.000,106.316 276.000 C 106.200 276.000,106.105 275.811,106.105 275.579 C 106.105 275.347,106.011 275.158,105.895 275.158 C 105.779 275.158,105.684 274.968,105.684 274.737 C 105.684 274.505,105.589 274.316,105.474 274.316 C 105.358 274.316,105.263 274.126,105.263 273.895 C 105.263 273.663,105.168 273.474,105.053 273.474 C 104.937 273.474,104.842 273.284,104.842 273.053 C 104.842 272.821,104.747 272.632,104.632 272.632 C 104.516 272.632,104.421 272.442,104.421 272.211 C 104.421 271.979,104.326 271.789,104.211 271.789 C 104.095 271.789,104.000 271.600,104.000 271.368 C 104.000 271.137,103.905 270.947,103.789 270.947 C 103.674 270.947,103.579 270.758,103.579 270.526 C 103.579 270.295,103.484 270.105,103.368 270.105 C 103.253 270.105,103.158 269.916,103.158 269.684 C 103.158 269.453,103.063 269.263,102.947 269.263 C 102.832 269.263,102.737 269.074,102.737 268.842 C 102.737 268.611,102.642 268.421,102.526 268.421 C 102.411 268.421,102.316 268.232,102.316 268.000 C 102.316 267.768,102.221 267.579,102.105 267.579 C 101.989 267.579,101.895 267.389,101.895 267.158 C 101.895 266.926,101.800 266.737,101.684 266.737 C 101.568 266.737,101.474 266.547,101.474 266.316 C 101.474 266.084,101.379 265.895,101.263 265.895 C 101.147 265.895,101.053 265.611,101.053 265.263 C 101.053 264.916,100.958 264.632,100.842 264.632 C 100.726 264.632,100.632 264.442,100.632 264.211 C 100.632 263.979,100.537 263.789,100.421 263.789 C 100.305 263.789,100.211 263.600,100.211 263.368 C 100.211 263.137,100.116 262.947,100.000 262.947 C 99.884 262.947,99.789 262.663,99.789 262.316 C 99.789 261.968,99.695 261.684,99.579 261.684 C 99.463 261.684,99.368 261.495,99.368 261.263 C 99.368 261.032,99.274 260.842,99.158 260.842 C 99.042 260.842,98.947 260.653,98.947 260.421 C 98.947 260.189,98.853 260.000,98.737 260.000 C 98.621 260.000,98.526 259.716,98.526 259.368 C 98.526 259.021,98.432 258.737,98.316 258.737 C 98.200 258.737,98.105 258.453,98.105 258.105 C 98.105 257.758,98.011 257.474,97.895 257.474 C 97.779 257.474,97.684 257.284,97.684 257.053 C 97.684 256.821,97.589 256.632,97.474 256.632 C 97.358 256.632,97.263 256.347,97.263 256.000 C 97.263 255.653,97.168 255.368,97.053 255.368 C 96.937 255.368,96.842 255.084,96.842 254.737 C 96.842 254.389,96.747 254.105,96.632 254.105 C 96.516 254.105,96.421 253.821,96.421 253.474 C 96.421 253.126,96.326 252.842,96.211 252.842 C 96.095 252.842,96.000 252.653,96.000 252.421 C 96.000 252.189,95.905 252.000,95.789 252.000 C 95.674 252.000,95.579 251.716,95.579 251.368 C 95.579 251.021,95.484 250.737,95.368 250.737 C 95.253 250.737,95.158 250.358,95.158 249.895 C 95.158 249.432,95.063 249.053,94.947 249.053 C 94.832 249.053,94.737 248.768,94.737 248.421 C 94.737 248.074,94.642 247.789,94.526 247.789 C 94.411 247.789,94.316 247.505,94.316 247.158 C 94.316 246.811,94.221 246.526,94.105 246.526 C 93.989 246.526,93.895 246.242,93.895 245.895 C 93.895 245.547,93.800 245.263,93.684 245.263 C 93.568 245.263,93.474 244.884,93.474 244.421 C 93.474 243.958,93.379 243.579,93.263 243.579 C 93.147 243.579,93.053 243.295,93.053 242.947 C 93.053 242.600,92.958 242.316,92.842 242.316 C 92.726 242.316,92.632 241.937,92.632 241.474 C 92.632 241.011,92.537 240.632,92.421 240.632 C 92.305 240.632,92.211 240.253,92.211 239.789 C 92.211 239.326,92.116 238.947,92.000 238.947 C 91.884 238.947,91.789 238.568,91.789 238.105 C 91.789 237.642,91.695 237.263,91.579 237.263 C 91.463 237.263,91.368 236.884,91.368 236.421 C 91.368 235.958,91.274 235.579,91.158 235.579 C 91.042 235.579,90.947 235.105,90.947 234.526 C 90.947 233.947,90.853 233.474,90.737 233.474 C 90.621 233.474,90.526 233.000,90.526 232.421 C 90.526 231.842,90.432 231.368,90.316 231.368 C 90.200 231.368,90.105 230.895,90.105 230.316 C 90.105 229.737,90.011 229.263,89.895 229.263 C 89.778 229.263,89.684 228.702,89.684 228.000 C 89.684 227.298,89.591 226.737,89.474 226.737 C 89.357 226.737,89.263 226.175,89.263 225.474 C 89.263 224.772,89.170 224.211,89.053 224.211 C 88.932 224.211,88.842 223.579,88.842 222.737 C 88.842 221.895,88.752 221.263,88.632 221.263 C 88.509 221.263,88.421 220.561,88.421 219.579 C 88.421 218.596,88.333 217.895,88.211 217.895 C 88.084 217.895,88.000 217.053,88.000 215.789 C 88.000 214.526,87.916 213.684,87.789 213.684 C 87.658 213.684,87.579 212.491,87.579 210.526 C 87.579 208.561,87.499 207.368,87.368 207.368 C 87.241 207.368,87.158 206.456,87.158 205.053 L 87.158 202.737 75.969 202.737 L 64.781 202.737 64.906 209.316 M325.472 204.579 C 325.467 210.229,323.565 227.608,322.737 229.579 C 322.639 229.811,322.511 230.481,322.452 231.069 C 322.393 231.657,322.184 232.841,321.988 233.700 C 320.877 238.568,319.961 242.255,319.782 242.576 C 319.670 242.777,319.579 243.102,319.579 243.298 C 319.579 243.696,319.205 244.963,318.922 245.523 C 318.820 245.725,318.737 246.049,318.737 246.245 C 318.737 246.643,318.363 247.910,318.079 248.471 C 317.978 248.672,317.895 249.022,317.895 249.248 C 317.895 249.474,317.800 249.718,317.684 249.789 C 317.568 249.861,317.474 250.145,317.474 250.421 C 317.474 250.697,317.379 250.981,317.263 251.053 C 317.147 251.124,317.053 251.408,317.053 251.684 C 317.053 251.960,316.958 252.244,316.842 252.316 C 316.726 252.387,316.632 252.672,316.632 252.947 C 316.632 253.223,316.537 253.507,316.421 253.579 C 316.305 253.651,316.211 253.935,316.211 254.211 C 316.211 254.486,316.116 254.771,316.000 254.842 C 315.884 254.914,315.789 255.156,315.789 255.381 C 315.789 255.606,315.695 255.789,315.579 255.789 C 315.463 255.789,315.368 256.021,315.368 256.303 C 315.368 256.586,315.274 256.876,315.158 256.947 C 315.042 257.019,314.947 257.303,314.947 257.579 C 314.947 257.855,314.853 258.139,314.737 258.211 C 314.621 258.282,314.526 258.525,314.526 258.749 C 314.526 258.974,314.432 259.158,314.316 259.158 C 314.200 259.158,314.105 259.389,314.105 259.672 C 314.105 259.954,314.011 260.244,313.895 260.316 C 313.779 260.387,313.684 260.630,313.684 260.855 C 313.684 261.079,313.589 261.263,313.474 261.263 C 313.358 261.263,313.263 261.494,313.263 261.777 C 313.263 262.060,313.168 262.349,313.053 262.421 C 312.937 262.493,312.842 262.735,312.842 262.960 C 312.842 263.185,312.747 263.368,312.632 263.368 C 312.516 263.368,312.421 263.558,312.421 263.789 C 312.421 264.021,312.326 264.211,312.211 264.211 C 312.095 264.211,312.000 264.397,312.000 264.625 C 312.000 264.853,311.811 265.377,311.579 265.789 C 311.347 266.202,311.158 266.678,311.158 266.849 C 311.158 267.019,311.063 267.158,310.947 267.158 C 310.832 267.158,310.737 267.347,310.737 267.579 C 310.737 267.811,310.642 268.000,310.526 268.000 C 310.411 268.000,310.316 268.189,310.316 268.421 C 310.316 268.653,310.221 268.842,310.105 268.842 C 309.989 268.842,309.895 269.032,309.895 269.263 C 309.895 269.495,309.800 269.684,309.684 269.684 C 309.568 269.684,309.474 269.874,309.474 270.105 C 309.474 270.337,309.379 270.526,309.263 270.526 C 309.147 270.526,309.053 270.716,309.053 270.947 C 309.053 271.179,308.958 271.368,308.842 271.368 C 308.726 271.368,308.632 271.558,308.632 271.789 C 308.632 272.021,308.537 272.211,308.421 272.211 C 308.305 272.211,308.211 272.400,308.211 272.632 C 308.211 272.863,308.116 273.053,308.000 273.053 C 307.884 273.053,307.789 273.242,307.789 273.474 C 307.789 273.705,307.695 273.895,307.579 273.895 C 307.463 273.895,307.368 274.084,307.368 274.316 C 307.368 274.547,307.274 274.737,307.158 274.737 C 307.042 274.737,306.947 274.926,306.947 275.158 C 306.947 275.389,306.853 275.579,306.737 275.579 C 306.621 275.579,306.526 275.768,306.526 276.000 C 306.526 276.232,306.432 276.421,306.316 276.421 C 306.200 276.421,306.105 276.545,306.105 276.697 C 306.105 276.849,305.916 277.177,305.684 277.425 C 305.453 277.674,305.263 278.023,305.263 278.202 C 305.263 278.380,305.168 278.526,305.053 278.526 C 304.937 278.526,304.842 278.716,304.842 278.947 C 304.842 279.179,304.747 279.368,304.632 279.368 C 304.516 279.368,304.421 279.493,304.421 279.645 C 304.421 279.796,304.232 280.124,304.000 280.373 C 303.768 280.621,303.579 280.971,303.579 281.149 C 303.579 281.328,303.484 281.474,303.368 281.474 C 303.253 281.474,303.158 281.642,303.158 281.848 C 303.158 282.054,302.968 282.359,302.737 282.526 C 302.505 282.693,302.316 282.998,302.316 283.204 C 302.316 283.410,302.221 283.579,302.105 283.579 C 301.989 283.579,301.895 283.703,301.895 283.855 C 301.895 284.007,301.705 284.335,301.474 284.583 C 301.242 284.832,301.053 285.160,301.053 285.313 C 301.053 285.466,300.863 285.728,300.632 285.895 C 300.400 286.062,300.211 286.346,300.211 286.526 C 300.211 286.707,300.021 286.991,299.789 287.158 C 299.558 287.325,299.368 287.609,299.368 287.789 C 299.368 287.970,299.179 288.254,298.947 288.421 C 298.716 288.588,298.526 288.855,298.526 289.015 C 298.526 289.174,298.242 289.570,297.895 289.895 C 297.547 290.219,297.263 290.596,297.263 290.731 C 297.263 291.241,296.646 291.642,296.301 291.356 C 296.074 291.168,295.917 291.157,295.757 291.317 C 295.464 291.609,295.744 292.062,296.127 291.916 C 296.633 291.721,296.449 292.226,295.789 292.842 C 295.442 293.167,295.158 293.546,295.158 293.684 C 295.158 293.823,294.874 294.202,294.526 294.526 C 294.179 294.851,293.895 295.228,293.895 295.364 C 293.895 295.500,293.516 295.976,293.053 296.421 C 292.589 296.866,292.211 297.338,292.211 297.471 C 292.211 297.603,291.737 298.173,291.158 298.737 C 290.579 299.301,290.105 299.868,290.105 299.996 C 290.105 300.125,289.442 300.885,288.632 301.684 C 287.821 302.484,287.158 303.237,287.158 303.360 C 287.158 303.650,278.597 312.211,278.307 312.211 C 278.185 312.211,277.431 312.874,276.632 313.684 C 275.161 315.176,274.814 315.362,274.358 314.905 C 273.969 314.517,273.524 315.027,273.879 315.455 C 274.147 315.777,272.955 317.263,272.428 317.263 C 272.309 317.263,271.821 317.642,271.343 318.105 C 270.866 318.568,270.383 318.947,270.270 318.947 C 270.156 318.947,269.798 319.232,269.474 319.579 C 269.149 319.926,268.753 320.211,268.594 320.211 C 268.434 320.211,268.167 320.400,268.000 320.632 C 267.833 320.863,267.566 321.053,267.406 321.053 C 267.247 321.053,266.851 321.337,266.526 321.684 C 266.202 322.032,265.806 322.316,265.646 322.316 C 265.487 322.316,265.220 322.505,265.053 322.737 C 264.886 322.968,264.602 323.158,264.421 323.158 C 264.241 323.158,263.956 323.347,263.789 323.579 C 263.623 323.811,263.361 324.000,263.208 324.000 C 263.055 324.000,262.726 324.189,262.478 324.421 C 262.229 324.653,261.902 324.842,261.750 324.842 C 261.598 324.842,261.474 324.937,261.474 325.053 C 261.474 325.168,261.305 325.263,261.099 325.263 C 260.893 325.263,260.588 325.453,260.421 325.684 C 260.254 325.916,259.949 326.105,259.743 326.105 C 259.537 326.105,259.368 326.200,259.368 326.316 C 259.368 326.432,259.200 326.526,258.994 326.526 C 258.788 326.526,258.483 326.716,258.316 326.947 C 258.149 327.179,257.844 327.368,257.638 327.368 C 257.432 327.368,257.263 327.463,257.263 327.579 C 257.263 327.695,257.074 327.789,256.842 327.789 C 256.611 327.789,256.421 327.884,256.421 328.000 C 256.421 328.116,256.232 328.211,256.000 328.211 C 255.768 328.211,255.579 328.290,255.579 328.388 C 255.579 328.486,255.129 328.793,254.579 329.072 C 254.029 329.351,253.547 329.650,253.509 329.737 C 253.470 329.824,253.257 329.895,253.035 329.895 C 252.813 329.895,252.632 329.989,252.632 330.105 C 252.632 330.221,252.442 330.316,252.211 330.316 C 251.979 330.316,251.789 330.411,251.789 330.526 C 251.789 330.642,251.657 330.737,251.495 330.737 C 251.333 330.737,250.660 331.021,250.000 331.368 C 249.340 331.716,248.619 332.000,248.400 332.000 C 248.180 332.000,248.000 332.095,248.000 332.211 C 248.000 332.326,247.811 332.421,247.579 332.421 C 247.347 332.421,247.158 332.516,247.158 332.632 C 247.158 332.747,247.019 332.842,246.849 332.842 C 246.678 332.842,246.202 333.032,245.789 333.263 C 245.377 333.495,244.853 333.684,244.625 333.684 C 244.397 333.684,244.211 333.779,244.211 333.895 C 244.211 334.011,244.027 334.105,243.802 334.105 C 243.577 334.105,243.335 334.200,243.263 334.316 C 243.192 334.432,242.907 334.526,242.632 334.526 C 242.356 334.526,242.072 334.621,242.000 334.737 C 241.928 334.853,241.647 334.947,241.374 334.947 C 241.101 334.947,240.846 335.020,240.807 335.108 C 240.723 335.299,235.545 337.053,235.064 337.053 C 234.881 337.053,234.567 337.136,234.366 337.237 C 233.805 337.521,232.538 337.895,232.140 337.895 C 231.944 337.895,231.619 337.983,231.418 338.091 C 230.586 338.538,223.811 339.904,219.789 340.436 C 215.675 340.980,211.527 341.262,207.632 341.263 L 203.368 341.263 203.368 353.368 L 203.368 365.474 207.632 365.473 C 282.239 365.458,345.266 294.780,346.884 209.316 L 347.009 202.737 336.241 202.737 L 325.474 202.737 325.472 204.579 " stroke="none" fill="#34349c" fill-rule="evenodd"></path><path id="path3" d="M159.165 128.855 C 139.181 130.745,122.048 141.891,123.492 152.063 C 124.343 158.057,130.720 161.878,136.533 159.880 C 140.663 158.459,144.716 155.123,148.609 149.940 C 152.129 145.252,153.620 144.113,156.227 144.123 C 160.257 144.138,162.212 148.397,162.210 157.158 C 162.208 162.165,162.396 162.035,154.737 162.325 C 140.101 162.879,130.633 166.509,123.867 174.160 C 113.737 185.616,119.659 204.158,134.842 208.525 C 145.467 211.581,155.814 209.708,164.530 203.152 C 166.333 201.795,167.365 202.041,169.262 204.278 C 172.145 207.676,176.058 209.514,181.087 209.829 L 183.120 209.956 183.010 211.873 C 182.691 217.395,186.112 226.477,190.488 231.726 C 193.109 234.870,195.779 235.632,201.684 234.921 C 203.556 234.696,204.191 234.739,211.579 235.597 C 219.899 236.562,225.972 236.804,228.861 236.286 L 230.037 236.074 230.288 238.511 C 232.868 263.531,257.711 279.431,284.526 273.224 C 302.450 269.076,313.213 254.858,305.002 246.176 C 302.380 243.404,300.090 243.182,295.368 245.239 C 283.022 250.618,272.254 246.957,267.120 235.634 C 262.598 225.661,266.994 214.063,274.921 215.053 C 278.314 215.477,279.612 216.960,281.599 222.682 C 284.473 230.957,287.552 233.516,294.632 233.511 C 309.314 233.501,316.045 217.082,306.170 205.368 C 301.986 200.405,292.297 195.465,283.908 194.016 C 276.666 192.766,264.375 193.571,260.105 195.574 C 259.874 195.683,258.737 196.118,257.579 196.541 C 256.421 196.964,254.331 197.892,252.935 198.603 L 250.396 199.895 249.615 198.830 C 246.021 193.925,239.912 189.440,230.389 184.716 C 221.304 180.209,219.495 178.443,220.971 175.516 C 223.068 171.359,226.369 172.127,233.081 178.334 C 239.310 184.094,241.967 185.385,246.126 184.671 C 254.644 183.211,255.543 173.733,248.204 162.761 C 243.803 156.181,240.183 154.570,234.153 156.508 C 230.522 157.675,230.013 157.694,225.158 156.837 C 212.683 154.636,205.316 155.476,198.309 159.899 L 197.537 160.386 197.408 156.456 C 197.119 147.707,195.874 143.485,192.386 139.431 C 187.601 133.869,178.250 129.478,170.105 128.968 C 166.285 128.729,161.068 128.675,159.165 128.855 M169.384 129.909 C 177.575 130.708,184.904 133.764,189.899 138.463 C 194.723 143.001,196.421 147.959,196.421 157.504 L 196.421 161.131 194.529 162.896 C 188.939 168.113,186.316 174.143,186.316 181.779 C 186.316 190.056,189.522 196.202,197.053 202.361 L 198.000 203.136 197.368 203.658 C 197.021 203.946,196.084 204.573,195.287 205.053 L 193.837 205.926 192.655 205.409 C 189.498 204.026,186.098 204.798,184.461 207.270 C 184.091 207.827,183.789 208.423,183.789 208.594 C 183.789 208.857,183.440 208.886,181.526 208.780 C 176.467 208.499,172.803 206.772,169.467 203.095 C 167.240 200.639,166.399 200.665,162.496 203.308 C 154.260 208.884,143.971 210.384,134.706 207.358 C 120.887 202.845,115.385 186.849,123.862 175.832 C 129.881 168.010,140.115 163.918,155.053 163.359 C 163.188 163.055,163.293 162.973,163.225 156.947 C 163.126 148.209,161.361 143.945,157.511 143.143 C 154.025 142.417,151.806 143.869,147.307 149.816 C 141.896 156.969,137.147 159.805,131.708 159.131 C 124.298 158.214,122.239 150.231,127.663 143.445 C 134.579 134.793,154.200 128.427,169.384 129.909 M220.105 156.974 C 221.379 157.149,223.700 157.537,225.263 157.837 C 229.632 158.676,231.028 158.608,234.632 157.379 C 239.985 155.554,242.875 156.871,247.079 163.053 C 254.641 174.170,253.459 183.718,244.526 183.671 C 240.995 183.653,239.686 182.909,233.977 177.678 C 228.956 173.077,227.492 172.163,224.928 172.033 C 221.221 171.845,218.492 175.594,219.972 178.842 C 220.840 180.746,222.723 182.094,228.482 184.934 C 238.482 189.864,245.213 194.585,248.522 198.986 C 249.696 200.547,249.703 200.441,248.371 201.294 C 237.547 208.223,230.892 219.555,230.379 231.932 C 230.235 235.397,230.595 235.013,227.127 235.395 C 224.245 235.711,220.494 235.532,213.789 234.756 C 203.983 233.622,204.055 233.626,201.011 234.013 C 194.425 234.852,191.447 232.900,187.674 225.274 C 182.128 214.064,182.930 205.789,189.562 205.789 C 192.559 205.789,192.646 205.850,199.263 212.521 C 206.573 219.892,207.442 220.484,210.947 220.490 C 214.372 220.495,216.404 218.765,216.416 215.834 C 216.427 213.366,214.691 211.559,210.105 209.264 C 194.264 201.335,187.618 193.629,187.226 182.737 C 186.612 165.644,201.009 154.363,220.105 156.974 M157.326 174.905 C 148.249 178.149,150.078 194.080,159.263 191.768 C 161.987 191.082,163.437 188.170,163.709 182.842 C 164.065 175.865,161.962 173.249,157.326 174.905 M161.430 176.143 C 163.953 178.016,162.725 188.703,159.789 190.413 C 155.191 193.092,150.502 186.051,153.104 180.373 C 154.830 176.606,159.118 174.428,161.430 176.143 M282.235 194.853 C 291.199 196.015,300.565 200.536,305.227 205.953 C 315.153 217.484,307.483 234.038,292.968 232.410 C 287.306 231.775,284.997 229.449,282.424 221.789 C 280.649 216.503,279.123 214.777,275.622 214.095 C 266.258 212.269,260.973 225.408,266.511 236.746 C 272.242 248.480,283.470 251.874,296.658 245.860 C 299.989 244.341,302.314 244.711,304.416 247.095 C 311.562 255.201,301.083 268.255,284.274 272.186 C 254.661 279.111,228.413 258.236,231.350 230.095 C 233.746 207.144,256.339 191.497,282.235 194.853 M200.958 205.153 C 202.110 205.903,203.148 206.596,203.266 206.694 C 203.701 207.054,206.512 208.614,209.432 210.116 C 214.041 212.485,215.531 214.021,215.323 216.186 C 215.120 218.303,213.592 219.437,210.935 219.443 C 207.531 219.450,205.975 218.222,195.738 207.449 L 194.914 206.581 195.673 206.112 C 196.091 205.854,196.548 205.532,196.690 205.396 C 196.911 205.185,198.779 203.789,198.842 203.789 C 198.854 203.789,199.806 204.403,200.958 205.153 " stroke="none" fill="#949407" fill-rule="evenodd"></path><path id="path4" d="M161.848 129.839 C 162.343 129.883,163.101 129.882,163.532 129.837 C 163.963 129.792,163.558 129.756,162.632 129.756 C 161.705 129.757,161.353 129.794,161.848 129.839 M165.837 129.836 C 166.211 129.883,166.874 129.883,167.311 129.838 C 167.748 129.792,167.442 129.754,166.632 129.753 C 165.821 129.752,165.464 129.790,165.837 129.836 M128.934 141.947 L 128.316 142.632 129.000 142.013 C 129.376 141.673,129.684 141.365,129.684 141.329 C 129.684 141.166,129.510 141.310,128.934 141.947 M196.264 153.789 C 196.266 154.253,196.309 154.417,196.359 154.155 C 196.410 153.894,196.408 153.515,196.355 153.313 C 196.302 153.112,196.261 153.326,196.264 153.789 M163.221 155.158 C 163.221 155.795,163.260 156.055,163.309 155.737 C 163.357 155.418,163.357 154.897,163.309 154.579 C 163.260 154.261,163.221 154.521,163.221 155.158 M213.842 156.573 C 214.218 156.620,214.834 156.620,215.211 156.573 C 215.587 156.527,215.279 156.488,214.526 156.488 C 213.774 156.488,213.466 156.527,213.842 156.573 M195.039 163.632 L 194.421 164.316 195.105 163.697 C 195.482 163.357,195.789 163.049,195.789 163.013 C 195.789 162.851,195.616 162.994,195.039 163.632 M158.579 163.303 C 158.782 163.356,159.113 163.356,159.316 163.303 C 159.518 163.250,159.353 163.207,158.947 163.207 C 158.542 163.207,158.376 163.250,158.579 163.303 M152.056 163.519 C 152.376 163.568,152.849 163.567,153.108 163.517 C 153.367 163.467,153.105 163.427,152.526 163.429 C 151.947 163.430,151.736 163.471,152.056 163.519 M193.566 165.105 L 192.947 165.789 193.632 165.171 C 194.008 164.831,194.316 164.523,194.316 164.487 C 194.316 164.324,194.142 164.467,193.566 165.105 M224.266 171.941 C 224.586 171.989,225.060 171.988,225.319 171.938 C 225.578 171.888,225.316 171.848,224.737 171.850 C 224.158 171.851,223.946 171.892,224.266 171.941 M220.934 173.526 L 220.316 174.211 221.000 173.592 C 221.638 173.016,221.781 172.842,221.618 172.842 C 221.582 172.842,221.274 173.150,220.934 173.526 M231.579 175.434 C 231.579 175.471,231.887 175.778,232.263 176.119 L 232.947 176.737 232.329 176.053 C 231.753 175.415,231.579 175.272,231.579 175.434 M187.207 179.579 C 187.207 179.984,187.250 180.150,187.303 179.947 C 187.356 179.745,187.356 179.413,187.303 179.211 C 187.250 179.008,187.207 179.174,187.207 179.579 M186.186 181.789 C 186.186 183.179,186.220 183.720,186.261 182.992 C 186.303 182.264,186.302 181.127,186.261 180.465 C 186.219 179.804,186.185 180.400,186.186 181.789 M221.158 180.632 C 221.610 181.095,222.028 181.474,222.085 181.474 C 222.143 181.474,221.821 181.095,221.368 180.632 C 220.916 180.168,220.499 179.789,220.441 179.789 C 220.383 179.789,220.706 180.168,221.158 180.632 M151.218 183.895 C 151.220 184.474,151.261 184.686,151.309 184.366 C 151.357 184.046,151.356 183.572,151.306 183.313 C 151.256 183.054,151.217 183.316,151.218 183.895 M243.732 183.731 C 244.106 183.777,244.769 183.778,245.206 183.733 C 245.643 183.687,245.337 183.649,244.526 183.648 C 243.716 183.647,243.358 183.684,243.732 183.731 M119.864 187.474 C 119.864 188.516,119.899 188.969,119.943 188.480 C 119.987 187.991,119.988 187.139,119.944 186.585 C 119.901 186.032,119.865 186.432,119.864 187.474 M274.585 194.471 C 275.139 194.514,275.991 194.514,276.480 194.470 C 276.969 194.425,276.516 194.390,275.474 194.391 C 274.432 194.391,274.032 194.427,274.585 194.471 M192.000 197.742 C 192.000 197.774,192.734 198.508,193.632 199.374 L 195.263 200.947 193.689 199.316 C 192.228 197.800,192.000 197.588,192.000 197.742 M168.421 201.961 C 168.421 201.997,168.729 202.305,169.105 202.645 L 169.789 203.263 169.171 202.579 C 168.595 201.941,168.421 201.798,168.421 201.961 M242.618 205.737 L 242.000 206.421 242.684 205.803 C 243.322 205.226,243.465 205.053,243.303 205.053 C 243.266 205.053,242.958 205.361,242.618 205.737 M241.883 207.737 L 241.158 208.526 241.947 207.801 C 242.682 207.126,242.834 206.947,242.673 206.947 C 242.638 206.947,242.282 207.303,241.883 207.737 M194.105 207.434 C 194.105 207.471,194.413 207.778,194.789 208.119 L 195.474 208.737 194.855 208.053 C 194.279 207.415,194.105 207.272,194.105 207.434 M239.881 208.474 L 239.263 209.158 239.947 208.540 C 240.585 207.963,240.728 207.789,240.566 207.789 C 240.529 207.789,240.222 208.097,239.881 208.474 M143.412 208.787 C 144.188 208.828,145.515 208.828,146.359 208.788 C 147.204 208.748,146.568 208.715,144.947 208.715 C 143.326 208.714,142.635 208.747,143.412 208.787 M181.211 208.786 C 181.703 208.830,182.508 208.830,183.000 208.786 C 183.492 208.741,183.089 208.705,182.105 208.705 C 181.121 208.705,180.718 208.741,181.211 208.786 M198.842 212.211 C 199.530 212.905,200.139 213.474,200.197 213.474 C 200.255 213.474,199.740 212.905,199.053 212.211 C 198.365 211.516,197.755 210.947,197.697 210.947 C 197.639 210.947,198.155 211.516,198.842 212.211 M184.072 212.737 C 184.073 213.663,184.110 214.016,184.154 213.521 C 184.199 213.026,184.198 212.268,184.153 211.837 C 184.108 211.405,184.071 211.811,184.072 212.737 M216.474 215.895 C 216.476 216.358,216.520 216.523,216.570 216.261 C 216.620 215.999,216.618 215.620,216.566 215.419 C 216.513 215.217,216.472 215.432,216.474 215.895 M202.526 216.105 C 202.919 216.511,203.288 216.842,203.346 216.842 C 203.404 216.842,203.130 216.511,202.737 216.105 C 202.344 215.700,201.975 215.368,201.917 215.368 C 201.860 215.368,202.134 215.700,202.526 216.105 M264.063 226.737 C 264.063 227.374,264.103 227.634,264.151 227.316 C 264.199 226.997,264.199 226.476,264.151 226.158 C 264.103 225.839,264.063 226.100,264.063 226.737 M286.105 229.368 C 286.498 229.774,286.867 230.105,286.925 230.105 C 286.983 230.105,286.709 229.774,286.316 229.368 C 285.923 228.963,285.554 228.632,285.496 228.632 C 285.438 228.632,285.712 228.963,286.105 229.368 M231.215 231.789 C 231.215 232.311,231.256 232.524,231.306 232.263 C 231.357 232.003,231.357 231.576,231.306 231.316 C 231.256 231.055,231.215 231.268,231.215 231.789 M230.179 233.263 C 230.179 234.247,230.215 234.650,230.259 234.158 C 230.304 233.666,230.304 232.861,230.259 232.368 C 230.215 231.876,230.179 232.279,230.179 233.263 M205.105 233.829 C 205.308 233.882,205.639 233.882,205.842 233.829 C 206.045 233.776,205.879 233.733,205.474 233.733 C 205.068 233.733,204.903 233.776,205.105 233.829 M197.737 234.256 C 198.055 234.304,198.576 234.304,198.895 234.256 C 199.213 234.208,198.953 234.168,198.316 234.168 C 197.679 234.168,197.418 234.208,197.737 234.256 M222.158 235.525 C 222.939 235.565,224.218 235.565,225.000 235.525 C 225.782 235.484,225.142 235.451,223.579 235.451 C 222.016 235.451,221.376 235.484,222.158 235.525 M231.218 236.737 C 231.220 237.316,231.261 237.528,231.309 237.208 C 231.357 236.888,231.356 236.414,231.306 236.155 C 231.256 235.896,231.217 236.158,231.218 236.737 M299.526 244.991 C 299.787 245.041,300.213 245.041,300.474 244.991 C 300.734 244.941,300.521 244.899,300.000 244.899 C 299.479 244.899,299.266 244.941,299.526 244.991 M282.474 248.780 C 282.734 248.830,283.161 248.830,283.421 248.780 C 283.682 248.730,283.468 248.689,282.947 248.689 C 282.426 248.689,282.213 248.730,282.474 248.780 M285.526 248.782 C 285.845 248.831,286.366 248.831,286.684 248.782 C 287.003 248.734,286.742 248.695,286.105 248.695 C 285.468 248.695,285.208 248.734,285.526 248.782 M242.000 261.053 C 242.804 261.863,243.510 262.526,243.568 262.526 C 243.626 262.526,243.015 261.863,242.211 261.053 C 241.406 260.242,240.701 259.579,240.643 259.579 C 240.585 259.579,241.196 260.242,242.000 261.053 M271.010 273.420 C 272.029 273.459,273.640 273.459,274.589 273.420 C 275.539 273.381,274.705 273.349,272.737 273.349 C 270.768 273.350,269.991 273.381,271.010 273.420 " stroke="none" fill="#9c9c0c" fill-rule="evenodd"></path></g></svg>